<mxfile host="Electron" modified="2023-10-26T19:48:43.925Z" agent="Mozilla/5.0 (Windows NT 10.0; Win64; x64) AppleWebKit/537.36 (KHTML, like Gecko) draw.io/21.6.8 Chrome/114.0.5735.289 Electron/25.5.0 Safari/537.36" etag="w3yfEoVMq9AanZjTvexw" version="21.6.8" type="device">
  <diagram name="Page-1" id="G2w5o0cd_N-8L9VwZMIT">
    <mxGraphModel dx="987" dy="577" grid="1" gridSize="10" guides="1" tooltips="1" connect="1" arrows="1" fold="1" page="1" pageScale="1" pageWidth="850" pageHeight="1100" math="0" shadow="0">
      <root>
        <mxCell id="0" />
        <mxCell id="1" parent="0" />
        <mxCell id="Aj0P5ylz1vTObHERr2yC-56" value="" style="shape=cylinder3;whiteSpace=wrap;html=1;boundedLbl=1;backgroundOutline=1;size=9.16664123535162;fillColor=#CCCCCC;" vertex="1" parent="1">
          <mxGeometry x="350" y="340" width="100" height="40" as="geometry" />
        </mxCell>
        <mxCell id="Aj0P5ylz1vTObHERr2yC-1" value="" style="shape=cylinder3;whiteSpace=wrap;html=1;boundedLbl=1;backgroundOutline=1;size=17.31999511718749;fillColor=#FFE599;verticalAlign=bottom;spacingTop=-14;" vertex="1" parent="1">
          <mxGeometry x="240" y="300" width="320" height="60" as="geometry" />
        </mxCell>
        <mxCell id="Aj0P5ylz1vTObHERr2yC-5" value="" style="endArrow=none;html=1;rounded=0;exitX=0.5;exitY=1;exitDx=0;exitDy=0;exitPerimeter=0;strokeWidth=3;" edge="1" parent="1" source="Aj0P5ylz1vTObHERr2yC-53">
          <mxGeometry width="50" height="50" relative="1" as="geometry">
            <mxPoint x="390" y="430" as="sourcePoint" />
            <mxPoint x="400" y="600" as="targetPoint" />
          </mxGeometry>
        </mxCell>
        <mxCell id="Aj0P5ylz1vTObHERr2yC-39" value="" style="group" vertex="1" connectable="0" parent="1">
          <mxGeometry x="282.5" y="380" width="62.5" height="205" as="geometry" />
        </mxCell>
        <mxCell id="Aj0P5ylz1vTObHERr2yC-21" value="" style="group;fillColor=none;container=0;" vertex="1" connectable="0" parent="Aj0P5ylz1vTObHERr2yC-39">
          <mxGeometry width="62.5" height="205" as="geometry" />
        </mxCell>
        <mxCell id="Aj0P5ylz1vTObHERr2yC-2" value="" style="shape=cylinder3;whiteSpace=wrap;html=1;boundedLbl=1;backgroundOutline=1;size=10.70001220703125;rotation=-90;fillColor=#808080;" vertex="1" parent="Aj0P5ylz1vTObHERr2yC-39">
          <mxGeometry x="-52.5" y="90" width="205" height="25" as="geometry" />
        </mxCell>
        <mxCell id="Aj0P5ylz1vTObHERr2yC-18" value="" style="shape=cylinder3;whiteSpace=wrap;html=1;boundedLbl=1;backgroundOutline=1;size=10.70001220703125;rotation=-90;fillColor=#FFB570;" vertex="1" parent="Aj0P5ylz1vTObHERr2yC-39">
          <mxGeometry x="-60" y="77.5" width="175" height="50" as="geometry" />
        </mxCell>
        <mxCell id="Aj0P5ylz1vTObHERr2yC-19" value="" style="shape=cylinder3;whiteSpace=wrap;html=1;boundedLbl=1;backgroundOutline=1;size=10.70001220703125;rotation=-90;fillColor=#808080;" vertex="1" parent="Aj0P5ylz1vTObHERr2yC-39">
          <mxGeometry x="-90" y="90" width="205" height="25" as="geometry" />
        </mxCell>
        <mxCell id="Aj0P5ylz1vTObHERr2yC-20" value="" style="ellipse;whiteSpace=wrap;html=1;fillColor=#4D4D4D;" vertex="1" parent="Aj0P5ylz1vTObHERr2yC-39">
          <mxGeometry x="5" y="32.5" width="10" height="140" as="geometry" />
        </mxCell>
        <mxCell id="Aj0P5ylz1vTObHERr2yC-40" value="" style="group" vertex="1" connectable="0" parent="1">
          <mxGeometry x="450" y="380" width="61" height="205" as="geometry" />
        </mxCell>
        <mxCell id="Aj0P5ylz1vTObHERr2yC-33" value="" style="shape=cylinder3;whiteSpace=wrap;html=1;boundedLbl=1;backgroundOutline=1;size=10.70001220703125;rotation=-270;fillColor=#808080;" vertex="1" parent="Aj0P5ylz1vTObHERr2yC-40">
          <mxGeometry x="-90" y="90" width="205" height="25" as="geometry" />
        </mxCell>
        <mxCell id="Aj0P5ylz1vTObHERr2yC-34" value="" style="shape=cylinder3;whiteSpace=wrap;html=1;boundedLbl=1;backgroundOutline=1;size=10.70001220703125;rotation=-270;fillColor=#FFB570;" vertex="1" parent="Aj0P5ylz1vTObHERr2yC-40">
          <mxGeometry x="-54" y="78" width="175" height="50" as="geometry" />
        </mxCell>
        <mxCell id="Aj0P5ylz1vTObHERr2yC-35" value="" style="shape=cylinder3;whiteSpace=wrap;html=1;boundedLbl=1;backgroundOutline=1;size=10.70001220703125;rotation=-270;fillColor=#808080;" vertex="1" parent="Aj0P5ylz1vTObHERr2yC-40">
          <mxGeometry x="-54" y="90" width="205" height="25" as="geometry" />
        </mxCell>
        <mxCell id="Aj0P5ylz1vTObHERr2yC-36" value="" style="ellipse;whiteSpace=wrap;html=1;fillColor=#4D4D4D;rotation=-180;" vertex="1" parent="Aj0P5ylz1vTObHERr2yC-40">
          <mxGeometry x="47" y="33" width="10" height="140" as="geometry" />
        </mxCell>
        <mxCell id="Aj0P5ylz1vTObHERr2yC-45" value="" style="group" vertex="1" connectable="0" parent="1">
          <mxGeometry x="540" y="260" width="70" height="130" as="geometry" />
        </mxCell>
        <mxCell id="Aj0P5ylz1vTObHERr2yC-42" value="" style="group" vertex="1" connectable="0" parent="Aj0P5ylz1vTObHERr2yC-45">
          <mxGeometry y="10" width="70" height="120" as="geometry" />
        </mxCell>
        <mxCell id="Aj0P5ylz1vTObHERr2yC-12" value="" style="rounded=0;whiteSpace=wrap;html=1;fillColor=#B5739D;" vertex="1" parent="Aj0P5ylz1vTObHERr2yC-42">
          <mxGeometry x="50" y="20" width="20" height="75" as="geometry" />
        </mxCell>
        <mxCell id="Aj0P5ylz1vTObHERr2yC-9" value="&lt;b style=&quot;border-color: var(--border-color);&quot;&gt;Damping Magnets&lt;/b&gt;" style="rounded=1;whiteSpace=wrap;html=1;fillColor=#CDA2BE;" vertex="1" parent="Aj0P5ylz1vTObHERr2yC-42">
          <mxGeometry width="70" height="30" as="geometry" />
        </mxCell>
        <mxCell id="Aj0P5ylz1vTObHERr2yC-10" value="" style="rounded=1;whiteSpace=wrap;html=1;fillColor=#CDA2BE;" vertex="1" parent="Aj0P5ylz1vTObHERr2yC-42">
          <mxGeometry y="90" width="70" height="30" as="geometry" />
        </mxCell>
        <mxCell id="Aj0P5ylz1vTObHERr2yC-44" value="" style="endArrow=classic;startArrow=classic;html=1;rounded=0;" edge="1" parent="Aj0P5ylz1vTObHERr2yC-45">
          <mxGeometry width="50" height="50" relative="1" as="geometry">
            <mxPoint as="sourcePoint" />
            <mxPoint x="70" as="targetPoint" />
          </mxGeometry>
        </mxCell>
        <mxCell id="Aj0P5ylz1vTObHERr2yC-46" value="" style="group" vertex="1" connectable="0" parent="1">
          <mxGeometry x="190" y="260" width="70" height="130" as="geometry" />
        </mxCell>
        <mxCell id="Aj0P5ylz1vTObHERr2yC-37" value="" style="group" vertex="1" connectable="0" parent="Aj0P5ylz1vTObHERr2yC-46">
          <mxGeometry y="10" width="70" height="120" as="geometry" />
        </mxCell>
        <mxCell id="Aj0P5ylz1vTObHERr2yC-11" value="" style="rounded=0;whiteSpace=wrap;html=1;fillColor=#B5739D;" vertex="1" parent="Aj0P5ylz1vTObHERr2yC-37">
          <mxGeometry y="20" width="20" height="75" as="geometry" />
        </mxCell>
        <mxCell id="Aj0P5ylz1vTObHERr2yC-7" value="&lt;b&gt;Damping Magnets&lt;/b&gt;" style="rounded=1;whiteSpace=wrap;html=1;fillColor=#CDA2BE;" vertex="1" parent="Aj0P5ylz1vTObHERr2yC-37">
          <mxGeometry width="70" height="30" as="geometry" />
        </mxCell>
        <mxCell id="Aj0P5ylz1vTObHERr2yC-8" value="" style="rounded=1;whiteSpace=wrap;html=1;fillColor=#CDA2BE;" vertex="1" parent="Aj0P5ylz1vTObHERr2yC-37">
          <mxGeometry y="90" width="70" height="30" as="geometry" />
        </mxCell>
        <mxCell id="Aj0P5ylz1vTObHERr2yC-43" value="" style="endArrow=classic;startArrow=classic;html=1;rounded=0;" edge="1" parent="Aj0P5ylz1vTObHERr2yC-46">
          <mxGeometry width="50" height="50" relative="1" as="geometry">
            <mxPoint as="sourcePoint" />
            <mxPoint x="70" as="targetPoint" />
          </mxGeometry>
        </mxCell>
        <mxCell id="Aj0P5ylz1vTObHERr2yC-51" value="&lt;b&gt;Driving Inductor&lt;/b&gt;" style="text;html=1;strokeColor=none;fillColor=none;align=center;verticalAlign=middle;whiteSpace=wrap;rounded=0;" vertex="1" parent="1">
          <mxGeometry x="220" y="467.5" width="60" height="30" as="geometry" />
        </mxCell>
        <mxCell id="Aj0P5ylz1vTObHERr2yC-52" value="&lt;b&gt;Driving Inductor&lt;/b&gt;" style="text;html=1;strokeColor=none;fillColor=none;align=center;verticalAlign=middle;whiteSpace=wrap;rounded=0;" vertex="1" parent="1">
          <mxGeometry x="516" y="467.5" width="60" height="30" as="geometry" />
        </mxCell>
        <mxCell id="Aj0P5ylz1vTObHERr2yC-54" value="" style="endArrow=none;html=1;rounded=0;strokeWidth=3;" edge="1" parent="1" target="Aj0P5ylz1vTObHERr2yC-53">
          <mxGeometry width="50" height="50" relative="1" as="geometry">
            <mxPoint x="400" y="380" as="sourcePoint" />
            <mxPoint x="400" y="640" as="targetPoint" />
          </mxGeometry>
        </mxCell>
        <mxCell id="Aj0P5ylz1vTObHERr2yC-53" value="&lt;b&gt;Driving Magnet&lt;/b&gt;" style="rounded=1;whiteSpace=wrap;html=1;fillColor=#CCCCCC;" vertex="1" parent="1">
          <mxGeometry x="375" y="452.5" width="50" height="60" as="geometry" />
        </mxCell>
        <mxCell id="Aj0P5ylz1vTObHERr2yC-55" value="" style="shape=cylinder3;whiteSpace=wrap;html=1;boundedLbl=1;backgroundOutline=1;size=9.16664123535162;fillColor=#CCCCCC;" vertex="1" parent="1">
          <mxGeometry x="350" y="290" width="100" height="40" as="geometry" />
        </mxCell>
        <mxCell id="Aj0P5ylz1vTObHERr2yC-4" value="" style="endArrow=none;html=1;rounded=0;strokeWidth=3;" edge="1" parent="1">
          <mxGeometry width="50" height="50" relative="1" as="geometry">
            <mxPoint x="400" y="240" as="sourcePoint" />
            <mxPoint x="400" y="300" as="targetPoint" />
          </mxGeometry>
        </mxCell>
        <mxCell id="Aj0P5ylz1vTObHERr2yC-58" value="&lt;b&gt;Oscillator&lt;/b&gt;" style="text;html=1;strokeColor=none;fillColor=none;align=center;verticalAlign=middle;whiteSpace=wrap;rounded=0;" vertex="1" parent="1">
          <mxGeometry x="370" y="333" width="60" height="30" as="geometry" />
        </mxCell>
        <mxCell id="Aj0P5ylz1vTObHERr2yC-61" value="" style="verticalLabelPosition=bottom;verticalAlign=top;html=1;shape=mxgraph.basic.arc;startAngle=0.30972620645568866;endAngle=0.1888575466724462;direction=north;" vertex="1" parent="1">
          <mxGeometry x="360" y="260" width="80" height="20" as="geometry" />
        </mxCell>
        <mxCell id="Aj0P5ylz1vTObHERr2yC-62" value="" style="endArrow=classic;html=1;rounded=0;entryX=0.955;entryY=0.304;entryDx=0;entryDy=0;entryPerimeter=0;exitX=0.927;exitY=0.273;exitDx=0;exitDy=0;exitPerimeter=0;" edge="1" parent="1">
          <mxGeometry width="50" height="50" relative="1" as="geometry">
            <mxPoint x="383.84000000000003" y="260.46000000000004" as="sourcePoint" />
            <mxPoint x="390.31999999999994" y="259.9" as="targetPoint" />
          </mxGeometry>
        </mxCell>
        <mxCell id="Aj0P5ylz1vTObHERr2yC-63" value="" style="endArrow=classic;html=1;rounded=0;exitX=0.843;exitY=0.834;exitDx=0;exitDy=0;exitPerimeter=0;" edge="1" parent="1">
          <mxGeometry width="50" height="50" relative="1" as="geometry">
            <mxPoint x="416.72" y="261.14" as="sourcePoint" />
            <mxPoint x="410" y="260" as="targetPoint" />
          </mxGeometry>
        </mxCell>
      </root>
    </mxGraphModel>
  </diagram>
</mxfile>
